<svg width="64" height="64" viewBox="0 0 64 64" fill="none" xmlns="http://www.w3.org/2000/svg">
<path fill-rule="evenodd" clip-rule="evenodd" d="M29.5318 8.5057C17.3675 8.5057 7.50635 18.3656 7.50635 30.5285C7.50635 42.6914 17.3675 52.5513 29.5318 52.5513C31.0523 52.5513 32.2849 53.7838 32.2849 55.3042C32.2849 56.8246 31.0523 58.057 29.5318 58.057C14.3264 58.057 2 45.732 2 30.5285C2 15.3249 14.3264 3 29.5318 3C44.737 3 57.0635 15.3249 57.0635 30.5285C57.0635 32.0489 55.8309 33.2814 54.3103 33.2814C52.7898 33.2814 51.5572 32.0489 51.5572 30.5285C51.5572 18.3656 41.6961 8.5057 29.5318 8.5057ZM61.5069 39.3668C62.7073 40.3003 62.9234 42.0299 61.9901 43.2299L49.1418 59.747C48.6622 60.3637 47.9436 60.7474 47.1645 60.803C46.3856 60.8586 45.6197 60.5806 45.0575 60.0385L38.6335 53.8446C37.5388 52.7895 37.5072 51.0466 38.5627 49.9524C39.618 48.8578 41.3611 48.8262 42.4554 49.8816L46.6752 53.9501L57.6433 39.85C58.5769 38.6497 60.3068 38.4336 61.5069 39.3668ZM32.2849 14.0114C32.2849 12.4911 31.0523 11.2586 29.5318 11.2586C28.0112 11.2586 26.7786 12.4911 26.7786 14.0114V30.5285C26.7786 31.2586 27.0688 31.9589 27.585 32.4751L35.8445 40.7336C36.9196 41.8086 38.6629 41.8086 39.7381 40.7336C40.8132 39.6586 40.8132 37.9155 39.7381 36.8405L32.2849 29.3883V14.0114Z" fill="black" stroke="white" stroke-width="2"/>
</svg>
