<svg width="64" height="64" viewBox="0 0 64 64" fill="none" xmlns="http://www.w3.org/2000/svg">
<path fill-rule="evenodd" clip-rule="evenodd" d="M32 12.9524C21.4803 12.9524 12.9524 21.4803 12.9524 32C12.9524 42.5198 21.4803 51.0476 32 51.0476C33.315 51.0476 34.381 52.1136 34.381 53.4286C34.381 54.7436 33.315 55.8095 32 55.8095C18.8504 55.8095 8.19048 45.1495 8.19048 32C8.19048 18.8504 18.8504 8.19048 32 8.19048C45.1495 8.19048 55.8095 18.8504 55.8095 32C55.8095 33.315 54.7436 34.381 53.4286 34.381C52.1136 34.381 51.0476 33.315 51.0476 32C51.0476 21.4803 42.5198 12.9524 32 12.9524ZM59.6521 39.6443C60.6902 40.4517 60.8771 41.9476 60.07 42.9855L48.9588 57.2712C48.544 57.8045 47.9226 58.1364 47.2488 58.1845C46.5752 58.2326 45.9129 57.9921 45.4267 57.5233L39.8712 52.1662C38.9245 51.2536 38.8971 49.7462 39.81 48.7998C40.7226 47.8531 42.23 47.8257 43.1764 48.7386L46.8257 52.2574L56.311 40.0621C57.1183 39.024 58.6143 38.8371 59.6521 39.6443ZM34.381 17.7143C34.381 16.3993 33.315 15.3333 32 15.3333C30.685 15.3333 29.619 16.3993 29.619 17.7143V32C29.619 32.6314 29.87 33.2371 30.3164 33.6836L37.4593 40.8264C38.389 41.7562 39.8967 41.7562 40.8264 40.8264C41.7562 39.8967 41.7562 38.389 40.8264 37.4593L34.381 31.0138V17.7143Z" fill="black" stroke="white" stroke-width="0.857143"/>
<circle cx="5" cy="5" r="5" fill="#03C988"/>
</svg>
