<svg width="74" height="74" viewBox="0 0 74 74" fill="none" xmlns="http://www.w3.org/2000/svg">
<path fill-rule="evenodd" clip-rule="evenodd" d="M37 14.9762C24.8366 14.9762 14.9762 24.8366 14.9762 37C14.9762 49.1635 24.8366 59.0238 37 59.0238C38.5205 59.0238 39.753 60.2563 39.753 61.7768C39.753 63.2973 38.5205 64.5298 37 64.5298C21.7957 64.5298 9.47024 52.2041 9.47024 37C9.47024 21.7957 21.7957 9.47024 37 9.47024C52.2041 9.47024 64.5298 21.7957 64.5298 37C64.5298 38.5205 63.2973 39.753 61.7768 39.753C60.2563 39.753 59.0238 38.5205 59.0238 37C59.0238 24.8366 49.1635 14.9762 37 14.9762ZM68.9728 45.8387C70.1731 46.7722 70.3892 48.5019 69.4559 49.702L56.6086 66.2198C56.1291 66.8365 55.4105 67.2202 54.6314 67.2759C53.8526 67.3315 53.0867 67.0534 52.5246 66.5114L46.1011 60.3172C45.0065 59.2619 44.9748 57.519 46.0303 56.4247C47.0855 55.3301 48.8284 55.2985 49.9227 56.354L54.1422 60.4226L65.1095 46.3219C66.0431 45.1216 67.7728 44.9054 68.9728 45.8387ZM39.753 20.4821C39.753 18.9617 38.5205 17.7292 37 17.7292C35.4795 17.7292 34.247 18.9617 34.247 20.4821V37C34.247 37.7301 34.5372 38.4304 35.0534 38.9466L43.3123 47.2056C44.3873 48.2806 46.1305 48.2806 47.2056 47.2056C48.2806 46.1305 48.2806 44.3873 47.2056 43.3123L39.753 35.8597V20.4821Z" fill="black" stroke="white" stroke-width="2"/>
<circle cx="13" cy="18" r="9" fill="#DA0037"/>
</svg>
