<svg width="256" height="256" viewBox="0 0 256 256" fill="none" xmlns="http://www.w3.org/2000/svg">
<path fill-rule="evenodd" clip-rule="evenodd" d="M117.667 37.3333C70.5383 37.3333 32.3333 75.5383 32.3333 122.667C32.3333 169.795 70.5383 208 117.667 208C123.558 208 128.333 212.775 128.333 218.667C128.333 224.558 123.558 229.333 117.667 229.333C58.7563 229.333 11 181.577 11 122.667C11 63.7563 58.7563 16 117.667 16C176.577 16 224.333 63.7563 224.333 122.667C224.333 128.558 219.558 133.333 213.667 133.333C207.775 133.333 203 128.558 203 122.667C203 75.5383 164.795 37.3333 117.667 37.3333ZM241.548 156.913C246.199 160.53 247.036 167.232 243.42 171.882L193.642 235.882C191.784 238.271 189 239.758 185.981 239.973C182.964 240.189 179.996 239.111 177.818 237.011L152.93 213.011C148.689 208.923 148.566 202.17 152.655 197.93C156.744 193.689 163.497 193.566 167.737 197.655L184.086 213.42L226.58 158.785C230.197 154.134 236.899 153.297 241.548 156.913ZM128.333 58.6667C128.333 52.7757 123.558 48 117.667 48C111.775 48 107 52.7757 107 58.6667V122.667C107 125.495 108.124 128.209 110.124 130.209L142.124 162.209C146.29 166.374 153.044 166.374 157.209 162.209C161.374 158.044 161.374 151.29 157.209 147.124L128.333 118.249V58.6667Z" fill="#E8EAEE" stroke="#5B74E3" stroke-width="8"/>
</svg>
