<svg width="414" height="414" viewBox="0 0 414 414" fill="none" xmlns="http://www.w3.org/2000/svg">
<path d="M211.75 199.855V201.512L212.922 202.683L225.119 214.881C230.293 220.055 230.293 228.445 225.119 233.619C219.945 238.793 211.555 238.793 206.381 233.619L189.131 216.369C186.647 213.885 185.25 210.514 185.25 207V103.5C185.25 96.1823 191.182 90.25 198.5 90.25C205.818 90.25 211.75 96.1823 211.75 103.5V199.855ZM297.683 330.578L300.512 327.75L297.683 324.922L258.131 285.369C252.957 280.195 252.957 271.805 258.131 266.631C263.305 261.457 271.695 261.457 276.869 266.631L316.422 306.183L319.25 309.012L322.078 306.183L361.631 266.631C366.805 261.457 375.195 261.457 380.369 266.631C385.543 271.805 385.543 280.195 380.369 285.369L340.817 324.922L337.988 327.75L340.817 330.578L380.369 370.131C385.543 375.305 385.543 383.695 380.369 388.869C375.195 394.043 366.805 394.043 361.631 388.869L322.078 349.317L319.25 346.488L316.422 349.317L276.869 388.869C271.695 394.043 263.305 394.043 258.131 388.869C252.957 383.695 252.957 375.305 258.131 370.131L297.683 330.578ZM198.5 65C120.076 65 56.5 128.576 56.5 207C56.5 285.425 120.076 349 198.5 349C205.818 349 211.75 354.932 211.75 362.25C211.75 369.568 205.818 375.5 198.5 375.5C105.44 375.5 30 300.059 30 207C30 113.94 105.44 38.5 198.5 38.5C291.559 38.5 367 113.94 367 207C367 214.318 361.068 220.25 353.75 220.25C346.432 220.25 340.5 214.318 340.5 207C340.5 128.576 276.925 65 198.5 65Z" fill="white" stroke="#7564E2" stroke-width="8"/>
</svg>
